<?xml version="1.0" standalone="no"?>
<!DOCTYPE svg PUBLIC "-//W3C//DTD SVG 20010904//EN"
 "http://www.w3.org/TR/2001/REC-SVG-20010904/DTD/svg10.dtd">
<svg version="1.0" xmlns="http://www.w3.org/2000/svg"
 width="1725.000000pt" height="1725.000000pt" viewBox="0 0 1725.000000 1725.000000"
 preserveAspectRatio="xMidYMid meet">
<metadata>
Created by potrace 1.16, written by Peter Selinger 2001-2019
</metadata>
<g transform="translate(0.000000,1725.000000) scale(0.100000,-0.100000)"
fill="#000000" stroke="none">
<path d="M5969 15925 c-445 -260 -2658 -1560 -2691 -1581 l-38 -24 -2 -1316
-3 -1316 -1223 -720 -1222 -720 2 -1526 3 -1527 1172 -715 c645 -394 1176
-720 1180 -724 5 -4 10 -613 13 -1354 l5 -1346 1419 -803 c1244 -703 1421
-801 1440 -791 12 6 183 100 381 208 2091 1145 2215 1211 2238 1199 19 -11
2222 -1274 2387 -1369 l65 -38 36 18 c20 10 515 290 1100 621 585 331 1211
685 1392 787 l327 185 0 931 c0 512 3 1124 7 1359 l6 428 1177 706 1177 706 6
586 c4 322 8 1018 8 1546 l2 960 -379 221 c-755 440 -1792 1043 -1926 1120
l-138 79 -2 720 c-1 396 -3 758 -4 805 -1 47 -2 317 -3 600 l-1 515 -198 114
c-108 62 -395 227 -637 366 -242 139 -804 463 -1250 720 -445 257 -814 468
-820 468 -5 0 -543 -322 -1194 -716 -1096 -663 -1185 -715 -1205 -703 -11 8
-451 265 -976 571 -525 307 -1068 624 -1206 705 l-251 146 -174 -101z m5126
-969 c1054 -597 1391 -789 1397 -794 4 -4 -1 -17 -11 -28 -9 -12 -285 -175
-612 -362 -327 -187 -661 -379 -744 -427 -82 -48 -155 -88 -161 -88 -6 0 -354
192 -773 428 -652 366 -762 431 -759 448 2 16 186 127 753 458 413 241 757
438 765 439 8 0 73 -33 145 -74z m-4534 -159 c217 -123 556 -315 754 -427 198
-112 365 -208 372 -214 9 -8 8 -16 -5 -33 -9 -12 -215 -135 -457 -273 -242
-139 -580 -333 -751 -431 l-312 -180 -763 430 c-655 367 -764 432 -766 452 -3
22 68 65 750 461 413 241 759 438 768 438 8 0 193 -100 410 -223z m2790 -1536
c409 -233 863 -492 1009 -576 l265 -151 3 -1311 2 -1312 28 -19 c15 -10 576
-328 1247 -707 671 -378 1226 -694 1234 -701 13 -12 12 -140 -7 -991 -12 -538
-25 -1020 -28 -1070 l-6 -93 -641 -386 c-353 -213 -802 -483 -999 -602 l-356
-214 -1248 713 c-687 392 -1256 712 -1265 712 -9 -1 -592 -321 -1294 -712
-703 -391 -1281 -711 -1286 -711 -10 0 -1970 1158 -1985 1174 -9 8 -16 307
-28 1080 -9 588 -15 1071 -13 1072 1 1 490 282 1087 624 597 343 1156 664
1243 714 l159 92 -1 1315 -2 1315 43 21 c24 12 502 276 1063 587 561 311 1023
565 1026 563 3 -1 341 -193 750 -426z m3703 -657 l7 -882 -323 -187 c-178
-103 -408 -238 -513 -300 -478 -283 -729 -425 -735 -415 -7 11 -20 1036 -20
1526 l0 253 83 46 c45 25 399 225 787 445 387 219 705 398 706 397 1 -1 4
-399 8 -883z m-8234 471 c382 -219 733 -420 780 -447 l85 -49 -2 -632 c-3
-698 -11 -1108 -22 -1126 -5 -8 -259 132 -774 426 l-767 438 0 785 c0 432 -3
836 -7 899 -4 68 -3 112 3 109 5 -3 322 -184 704 -403z m9430 -2519 c415 -235
758 -431 762 -434 4 -4 -1 -17 -11 -28 -9 -12 -285 -175 -612 -362 -327 -187
-661 -379 -744 -427 -82 -48 -155 -88 -161 -88 -6 0 -354 192 -773 428 -652
366 -762 431 -759 448 2 16 186 128 753 459 469 274 758 437 770 435 12 -2
360 -196 775 -431z m-9840 -30 c415 -235 758 -431 762 -434 4 -4 -1 -17 -11
-28 -9 -12 -285 -175 -612 -362 -327 -187 -661 -379 -744 -427 -82 -48 -155
-88 -161 -88 -6 0 -354 192 -773 428 -652 366 -762 431 -759 448 2 16 186 128
753 459 469 274 758 437 770 435 12 -2 360 -196 775 -431z m11113 -2846 c-14
-13 -1545 -900 -1553 -900 -16 0 -19 131 -24 951 l-5 825 787 447 787 446 8
-881 c5 -484 5 -884 0 -888z m-13113 1272 l755 -433 -2 -632 c-3 -689 -11
-1108 -22 -1126 -5 -8 -259 132 -774 426 l-767 438 0 785 c0 432 -3 837 -7
899 l-6 115 34 -20 c19 -11 374 -215 789 -452z m10723 -5392 c-8 -8 -1294
-756 -1463 -852 -47 -26 -88 -48 -92 -48 -14 0 -17 150 -22 951 l-5 825 272
154 c150 85 504 286 787 448 l515 293 8 -882 c5 -485 5 -885 0 -889z m-3183
1291 l756 -432 -3 -562 c-4 -693 -13 -1181 -22 -1196 -5 -8 -263 135 -774 426
l-767 438 0 560 c0 308 -3 713 -6 899 l-6 339 33 -19 c19 -11 374 -215 789
-453z m-5090 -19 l755 -433 -2 -632 c-3 -689 -11 -1108 -22 -1126 -5 -8 -259
132 -774 426 l-767 438 0 536 c0 295 -3 699 -7 899 l-6 364 34 -20 c19 -11
374 -214 789 -452z m3119 -903 l1 -397 -102 -60 c-367 -216 -1452 -842 -1458
-842 -16 0 -19 114 -24 941 l-5 835 62 36 c34 19 217 123 407 230 190 108 516
293 725 412 l380 216 6 -488 c3 -268 7 -665 8 -883z"/>
</g>
</svg>
